<?xml version="1.0" encoding="utf-8"?>
<!-- Generator: Adobe Illustrator 25.1.0, SVG Export Plug-In . SVG Version: 6.00 Build 0)  -->
<svg version="1.1" id="Layer_1" xmlns="http://www.w3.org/2000/svg" xmlns:xlink="http://www.w3.org/1999/xlink" x="0px" y="0px"
	 viewBox="0 0 401.7 98.4" style="enable-background:new 0 0 401.7 98.4;" xml:space="preserve">
<style type="text/css">
	.st0{fill:#2C3E50;}
</style>
<path class="st0" d="M79.1,7.4H4.6C2.1,7.4,0,9.4,0,12v74.5C0,89,2.1,91,4.6,91h74.5c2.6,0,4.6-2.1,4.6-4.6V12
	C83.7,9.4,81.6,7.4,79.1,7.4z M59.6,28.6H36.4v15.3H57v9.7H36.4v16.2h23.2v10H24.1V18.6h35.5V28.6z"/>
<path class="st0" d="M106.6,16.8v64.8H94.3V16.8H106.6z"/>
<path class="st0" d="M163.4,61h-35.5c0.3,3.5,1.5,6.3,3.7,8.2c2.2,2,4.8,3,8,3c4.6,0,7.8-2,9.7-5.9h13.2c-1.4,4.7-4.1,8.5-8.1,11.5
	c-4,3-8.9,4.5-14.6,4.5c-4.7,0-8.9-1-12.6-3.1c-3.7-2.1-6.6-5-8.7-8.8c-2.1-3.8-3.1-8.2-3.1-13.1c0-5,1-9.4,3.1-13.2
	c2-3.8,4.9-6.7,8.6-8.8c3.7-2,7.9-3.1,12.7-3.1c4.6,0,8.7,1,12.4,3c3.7,2,6.5,4.8,8.5,8.5c2,3.7,3,7.8,3,12.6
	C163.8,58.1,163.7,59.6,163.4,61z M151.1,52.8c-0.1-3.2-1.2-5.7-3.4-7.6c-2.2-1.9-4.9-2.8-8.1-2.8c-3,0-5.6,0.9-7.7,2.8
	c-2.1,1.8-3.3,4.4-3.8,7.7H151.1z"/>
<path class="st0" d="M247.4,37.9c3.6,3.7,5.5,8.7,5.5,15.3v28.5h-12.3V54.8c0-3.8-1-6.7-2.9-8.7s-4.6-3-7.9-3c-3.3,0-6,1-7.9,3
	c-2,2-2.9,4.9-2.9,8.7v26.8h-12.3V54.8c0-3.8-1-6.7-2.9-8.7c-1.9-2-4.6-3-7.9-3c-3.4,0-6.1,1-8,3c-2,2-2.9,4.9-2.9,8.7v26.8h-12.3
	V33.1H185v5.9c1.6-2,3.6-3.7,6.1-4.8c2.5-1.2,5.2-1.8,8.2-1.8c3.8,0,7.2,0.8,10.2,2.4c3,1.6,5.3,3.9,6.9,6.9
	c1.6-2.8,3.9-5.1,6.9-6.7c3-1.7,6.3-2.5,9.8-2.5C239,32.4,243.8,34.2,247.4,37.9z"/>
<path class="st0" d="M309.3,61h-35.5c0.3,3.5,1.5,6.3,3.7,8.2c2.2,2,4.8,3,8,3c4.6,0,7.8-2,9.7-5.9h13.2c-1.4,4.7-4.1,8.5-8.1,11.5
	c-4,3-8.9,4.5-14.6,4.5c-4.7,0-8.9-1-12.6-3.1c-3.7-2.1-6.6-5-8.7-8.8c-2.1-3.8-3.1-8.2-3.1-13.1c0-5,1-9.4,3.1-13.2
	c2-3.8,4.9-6.7,8.6-8.8c3.7-2,7.9-3.1,12.7-3.1c4.6,0,8.7,1,12.4,3c3.7,2,6.5,4.8,8.5,8.5c2,3.7,3,7.8,3,12.6
	C309.7,58.1,309.6,59.6,309.3,61z M297,52.8c-0.1-3.2-1.2-5.7-3.4-7.6c-2.2-1.9-4.9-2.8-8.1-2.8c-3,0-5.6,0.9-7.7,2.8
	c-2.1,1.8-3.3,4.4-3.8,7.7H297z"/>
<path class="st0" d="M359.5,37.9c3.6,3.7,5.3,8.7,5.3,15.3v28.5h-12.3V54.8c0-3.9-1-6.8-2.9-8.9c-1.9-2.1-4.6-3.1-7.9-3.1
	c-3.4,0-6.1,1-8,3.1c-2,2.1-2.9,5-2.9,8.9v26.8h-12.3V33.1h12.3v6c1.6-2.1,3.7-3.8,6.3-5c2.5-1.2,5.3-1.8,8.4-1.8
	C351.3,32.4,356,34.2,359.5,37.9z"/>
<path class="st0" d="M390.8,43.2v23.5c0,1.6,0.4,2.8,1.2,3.5c0.8,0.7,2.1,1.1,4,1.1h5.7v10.3H394c-10.3,0-15.5-5-15.5-15.1V43.2
	h-5.8V33.1h5.8v-12h12.4v12h10.9v10.1H390.8z"/>
</svg>
